<?xml version="1.0" encoding="utf-8"?>
<!-- Generator: Adobe Illustrator 21.1.0, SVG Export Plug-In . SVG Version: 6.00 Build 0)  -->
<svg version="1.1" id="Calque_1" xmlns="http://www.w3.org/2000/svg" xmlns:xlink="http://www.w3.org/1999/xlink" x="0px" y="0px"
	 viewBox="0 0 200 200" style="enable-background:new 0 0 200 200;" xml:space="preserve">
<style type="text/css">
	.st0{fill:#00CED1;}
</style>
<g>
	<path class="st0" d="M32.8,17c-2.6,0-4.6,2.1-4.6,4.6v11.8H12.6c-2.6,0-4.6,2.1-4.6,4.6v140.7c0,2.6,2.1,4.6,4.6,4.6H188
		c2.6,0,4.6-2.1,4.6-4.6V38.1c0-2.6-2.1-4.6-4.6-4.6h-15.5V21.7c0-2.6-2.1-4.6-4.6-4.6s-4.6,2.1-4.6,4.6v11.8h-24.5V21.7
		c0-2.6-2.1-4.6-4.6-4.6s-4.6,2.1-4.6,4.6v11.8H105V21.7c0-2.6-2.1-4.6-4.6-4.6c-2.6,0-4.6,2.1-4.6,4.6v11.8H71.2V21.7
		c0-2.6-2.1-4.6-4.6-4.6c-2.6,0-4.6,2.1-4.6,4.6v11.8H37.4V21.7C37.4,19.1,35.3,17,32.8,17z M61.9,42.8v11.8c0,2.6,2.1,4.6,4.6,4.6
		c2.6,0,4.6-2.1,4.6-4.6V42.8h24.5v11.8c0,2.6,2.1,4.6,4.6,4.6c2.6,0,4.6-2.1,4.6-4.6V42.8h24.5v11.8c0,2.6,2.1,4.6,4.6,4.6
		c2.6,0,4.6-2.1,4.6-4.6V42.8h24.5v11.8c0,2.6,2.1,4.6,4.6,4.6s4.6-2.1,4.6-4.6V42.8h10.9v131.5H17.3V42.8h10.9v11.8
		c0,2.6,2.1,4.6,4.6,4.6s4.6-2.1,4.6-4.6V42.8H61.9z"/>
	<path class="st0" d="M133.4,115.1h30c2.6,0,4.6-2.1,4.6-4.6v-30c0-2.6-2.1-4.6-4.6-4.6h-30c-2.6,0-4.6,2.1-4.6,4.6v30
		C128.8,113.1,130.9,115.1,133.4,115.1z M138.1,85.2h20.7v20.7h-20.7C138.1,105.9,138.1,85.2,138.1,85.2z"/>
	<path class="st0" d="M86.1,162.5h30c2.6,0,4.6-2.1,4.6-4.6v-30c0-2.6-2.1-4.6-4.6-4.6h-30c-2.6,0-4.6,2.1-4.6,4.6v30
		C81.5,160.4,83.5,162.5,86.1,162.5z M90.7,132.5h20.7v20.7H90.7V132.5z"/>
	<path class="st0" d="M133.4,162.5h30c2.6,0,4.6-2.1,4.6-4.6v-30c0-2.6-2.1-4.6-4.6-4.6h-30c-2.6,0-4.6,2.1-4.6,4.6v30
		C128.8,160.4,130.9,162.5,133.4,162.5z M138.1,132.5h20.7v20.7h-20.7C138.1,153.2,138.1,132.5,138.1,132.5z"/>
</g>
</svg>
